<mxfile host="app.diagrams.net" agent="Mozilla/5.0 (Windows NT 10.0; Win64; x64) AppleWebKit/537.36 (KHTML, like Gecko) Chrome/130.0.0.0 Safari/537.36" version="24.8.2">
  <diagram name="Page-1" id="Es3Xw6ZudL-9_e_jg_tI">
    <mxGraphModel dx="1434" dy="746" grid="1" gridSize="10" guides="1" tooltips="1" connect="1" arrows="1" fold="1" page="1" pageScale="1" pageWidth="850" pageHeight="1100" math="0" shadow="0">
      <root>
        <mxCell id="0" />
        <mxCell id="1" parent="0" />
        <mxCell id="dvzhZEFmQeY6nvFcxPSS-5" style="edgeStyle=orthogonalEdgeStyle;rounded=0;orthogonalLoop=1;jettySize=auto;html=1;entryX=0.5;entryY=0;entryDx=0;entryDy=0;" edge="1" parent="1" source="dvzhZEFmQeY6nvFcxPSS-1" target="dvzhZEFmQeY6nvFcxPSS-2">
          <mxGeometry relative="1" as="geometry" />
        </mxCell>
        <mxCell id="dvzhZEFmQeY6nvFcxPSS-9" style="edgeStyle=orthogonalEdgeStyle;rounded=0;orthogonalLoop=1;jettySize=auto;html=1;entryX=0.5;entryY=0;entryDx=0;entryDy=0;" edge="1" parent="1" source="dvzhZEFmQeY6nvFcxPSS-1" target="dvzhZEFmQeY6nvFcxPSS-4">
          <mxGeometry relative="1" as="geometry" />
        </mxCell>
        <mxCell id="dvzhZEFmQeY6nvFcxPSS-16" style="edgeStyle=orthogonalEdgeStyle;rounded=0;orthogonalLoop=1;jettySize=auto;html=1;entryX=0.5;entryY=0;entryDx=0;entryDy=0;" edge="1" parent="1" source="dvzhZEFmQeY6nvFcxPSS-1" target="dvzhZEFmQeY6nvFcxPSS-17">
          <mxGeometry relative="1" as="geometry">
            <mxPoint x="510" y="200" as="targetPoint" />
          </mxGeometry>
        </mxCell>
        <mxCell id="dvzhZEFmQeY6nvFcxPSS-25" style="edgeStyle=orthogonalEdgeStyle;rounded=0;orthogonalLoop=1;jettySize=auto;html=1;entryX=0.5;entryY=1;entryDx=0;entryDy=0;" edge="1" parent="1" source="dvzhZEFmQeY6nvFcxPSS-1" target="dvzhZEFmQeY6nvFcxPSS-3">
          <mxGeometry relative="1" as="geometry" />
        </mxCell>
        <mxCell id="dvzhZEFmQeY6nvFcxPSS-1" value="python backend" style="rounded=0;whiteSpace=wrap;html=1;" vertex="1" parent="1">
          <mxGeometry x="120" y="170" width="120" height="60" as="geometry" />
        </mxCell>
        <mxCell id="dvzhZEFmQeY6nvFcxPSS-8" style="edgeStyle=orthogonalEdgeStyle;rounded=0;orthogonalLoop=1;jettySize=auto;html=1;entryX=0.5;entryY=1;entryDx=0;entryDy=0;" edge="1" parent="1" source="dvzhZEFmQeY6nvFcxPSS-2" target="dvzhZEFmQeY6nvFcxPSS-1">
          <mxGeometry relative="1" as="geometry" />
        </mxCell>
        <mxCell id="dvzhZEFmQeY6nvFcxPSS-2" value="redis" style="rounded=0;whiteSpace=wrap;html=1;" vertex="1" parent="1">
          <mxGeometry x="120" y="280" width="120" height="60" as="geometry" />
        </mxCell>
        <mxCell id="dvzhZEFmQeY6nvFcxPSS-24" value="" style="edgeStyle=orthogonalEdgeStyle;rounded=0;orthogonalLoop=1;jettySize=auto;html=1;" edge="1" parent="1" source="dvzhZEFmQeY6nvFcxPSS-3" target="dvzhZEFmQeY6nvFcxPSS-1">
          <mxGeometry relative="1" as="geometry" />
        </mxCell>
        <mxCell id="dvzhZEFmQeY6nvFcxPSS-3" value="react" style="rounded=0;whiteSpace=wrap;html=1;" vertex="1" parent="1">
          <mxGeometry x="120" y="60" width="120" height="60" as="geometry" />
        </mxCell>
        <mxCell id="dvzhZEFmQeY6nvFcxPSS-19" style="edgeStyle=orthogonalEdgeStyle;rounded=0;orthogonalLoop=1;jettySize=auto;html=1;entryX=1;entryY=0.5;entryDx=0;entryDy=0;" edge="1" parent="1" source="dvzhZEFmQeY6nvFcxPSS-4" target="dvzhZEFmQeY6nvFcxPSS-1">
          <mxGeometry relative="1" as="geometry" />
        </mxCell>
        <mxCell id="dvzhZEFmQeY6nvFcxPSS-4" value="mysql" style="rounded=0;whiteSpace=wrap;html=1;" vertex="1" parent="1">
          <mxGeometry x="280" y="280" width="120" height="60" as="geometry" />
        </mxCell>
        <mxCell id="dvzhZEFmQeY6nvFcxPSS-23" style="edgeStyle=orthogonalEdgeStyle;rounded=0;orthogonalLoop=1;jettySize=auto;html=1;entryX=0.5;entryY=1;entryDx=0;entryDy=0;" edge="1" parent="1" source="dvzhZEFmQeY6nvFcxPSS-11" target="dvzhZEFmQeY6nvFcxPSS-17">
          <mxGeometry relative="1" as="geometry" />
        </mxCell>
        <mxCell id="dvzhZEFmQeY6nvFcxPSS-11" value="football api" style="rounded=0;whiteSpace=wrap;html=1;" vertex="1" parent="1">
          <mxGeometry x="440" y="380" width="120" height="60" as="geometry" />
        </mxCell>
        <mxCell id="dvzhZEFmQeY6nvFcxPSS-18" style="edgeStyle=orthogonalEdgeStyle;rounded=0;orthogonalLoop=1;jettySize=auto;html=1;entryX=1;entryY=0.5;entryDx=0;entryDy=0;" edge="1" parent="1" source="dvzhZEFmQeY6nvFcxPSS-17" target="dvzhZEFmQeY6nvFcxPSS-4">
          <mxGeometry relative="1" as="geometry" />
        </mxCell>
        <mxCell id="dvzhZEFmQeY6nvFcxPSS-22" style="edgeStyle=orthogonalEdgeStyle;rounded=0;orthogonalLoop=1;jettySize=auto;html=1;entryX=0.5;entryY=0;entryDx=0;entryDy=0;" edge="1" parent="1" source="dvzhZEFmQeY6nvFcxPSS-17" target="dvzhZEFmQeY6nvFcxPSS-11">
          <mxGeometry relative="1" as="geometry" />
        </mxCell>
        <mxCell id="dvzhZEFmQeY6nvFcxPSS-17" value="python data manager" style="rounded=0;whiteSpace=wrap;html=1;" vertex="1" parent="1">
          <mxGeometry x="440" y="280" width="120" height="60" as="geometry" />
        </mxCell>
      </root>
    </mxGraphModel>
  </diagram>
</mxfile>
